<?xml version="1.0" standalone="no"?>
<!DOCTYPE svg PUBLIC "-//W3C//DTD SVG 20010904//EN"
 "http://www.w3.org/TR/2001/REC-SVG-20010904/DTD/svg10.dtd">
<svg version="1.0" xmlns="http://www.w3.org/2000/svg"
 width="1466.000000pt" height="393.000000pt" viewBox="0 0 1466.000000 393.000000"
 preserveAspectRatio="xMidYMid meet">

<g transform="translate(0.000000,393.000000) scale(0.100000,-0.100000)"
fill="#000000" stroke="none">
<path d="M6028 3586 c-19 -14 -11 76 -103 -1161 -74 -991 -94 -1247 -98 -1252
-2 -2 -10 52 -16 119 -59 601 -103 993 -112 1005 -15 18 -44 16 -60 -3 -8 -9
-39 -82 -70 -163 l-56 -146 -149 -3 c-82 -2 -348 0 -591 3 l-443 7 0 345 0
344 -25 25 -25 25 -431 -3 -431 -3 -19 -24 c-18 -22 -19 -50 -19 -758 l0 -734
25 -24 24 -25 414 0 c267 0 425 4 445 11 17 6 32 20 36 32 3 12 6 174 6 360
l0 337 608 0 608 0 26 28 c14 15 33 51 44 80 10 28 20 52 24 52 3 0 29 -242
59 -537 29 -296 58 -549 65 -563 17 -37 59 -54 93 -38 15 7 33 24 39 38 6 14
23 189 38 390 14 201 46 646 71 990 25 344 49 643 53 665 5 28 20 -121 48
-494 41 -530 41 -534 65 -552 40 -31 82 -20 106 26 6 11 27 96 48 188 21 92
42 164 46 160 4 -4 28 -95 54 -201 35 -141 53 -199 68 -213 20 -18 38 -19 343
-19 315 0 324 1 343 21 24 26 17 -4 92 422 35 196 66 354 70 350 3 -5 14 -107
23 -228 35 -451 66 -831 72 -857 7 -36 55 -56 89 -38 32 17 34 24 91 313 26
136 51 247 55 247 3 0 18 -39 32 -87 43 -144 21 -133 278 -133 128 0 228 -4
239 -10 32 -17 65 5 120 79 29 39 54 71 56 71 2 0 -5 -23 -16 -50 -22 -56 -27
-114 -9 -108 7 2 18 28 25 57 13 49 55 140 100 218 10 17 15 35 11 40 -11 10
-58 -42 -165 -180 -46 -59 -88 -107 -94 -107 -29 0 36 139 103 220 50 60 51
94 2 49 -33 -31 -123 -167 -123 -185 0 -12 -33 -14 -212 -12 l-212 3 -51 161
c-27 88 -56 173 -62 187 -14 30 -43 35 -66 13 -8 -8 -37 -131 -68 -285 -48
-242 -69 -317 -69 -248 0 12 -25 278 -55 591 -41 431 -58 573 -69 584 -20 21
-64 8 -71 -21 -3 -12 -43 -231 -90 -487 -47 -256 -87 -475 -90 -488 l-5 -22
-282 2 -282 3 -72 294 c-41 169 -77 297 -85 302 -48 30 -63 2 -115 -225 -32
-136 -51 -202 -55 -190 -4 11 -17 134 -28 274 -12 140 -37 440 -56 665 -19
226 -35 420 -35 433 0 21 -32 62 -47 62 -5 0 -16 -6 -25 -14z m-2058 -946 c0
-19 -7 -20 -110 -20 -103 0 -110 1 -110 20 0 19 7 20 110 20 103 0 110 -1 110
-20z m288 -359 l2 -290 -114 -3 c-111 -3 -116 -2 -138 21 -13 14 -17 21 -10
17 11 -7 12 -4 3 13 -7 11 -14 21 -17 21 -3 0 -2 -5 2 -12 4 -7 3 -8 -4 -4 -7
4 -12 14 -12 22 0 11 -6 14 -22 9 -18 -5 -20 -4 -8 4 14 10 7 16 -14 12 -4 -1
-14 3 -21 9 -13 11 -104 8 -123 -4 -7 -4 -10 -12 -7 -17 3 -5 0 -6 -7 -4 -8 3
-22 -2 -33 -11 -11 -8 -14 -12 -6 -9 9 5 8 -1 -4 -19 -10 -14 -22 -23 -29 -19
-6 4 -4 -2 4 -12 14 -17 13 -18 -5 -11 -16 6 -18 5 -7 -5 14 -15 17 -33 3 -25
-4 3 -7 -14 -6 -37 3 -68 4 -70 21 -63 15 6 15 4 3 -11 -12 -14 -12 -16 2 -11
11 4 15 0 15 -16 -1 -14 5 -21 16 -20 10 1 16 -3 15 -10 -1 -6 6 -10 15 -10
10 1 15 -2 12 -7 -3 -5 5 -9 18 -8 13 0 43 -2 68 -5 30 -4 37 -3 20 2 -25 8
-24 9 7 13 18 3 29 1 26 -4 -3 -5 4 -4 16 3 12 6 19 15 16 20 -3 6 0 8 7 5 7
-3 19 4 26 16 11 17 11 20 0 15 -7 -4 -3 1 10 10 12 9 22 27 22 41 0 19 4 24
16 19 9 -3 63 -6 120 -6 l104 0 -2 -265 -3 -265 -398 -3 -397 -2 0 605 0 605
397 -2 398 -3 3 -289z m-321 -227 c87 -67 83 -187 -9 -245 -46 -28 -128 -22
-164 12 -57 53 -70 124 -33 189 40 71 142 93 206 44z m-29 -740 c26 -18 29
-59 6 -92 -11 -16 -25 -22 -54 -22 -44 0 -70 26 -70 69 0 54 68 80 118 45z"/>
<path d="M13882 3582 c-15 -15 -20 -42 -26 -123 -4 -57 -27 -365 -51 -684 -24
-319 -61 -804 -81 -1077 -21 -274 -41 -498 -44 -498 -3 0 -30 233 -59 518 -29
284 -56 533 -60 552 -6 32 -10 35 -41 35 l-34 0 -61 -155 -61 -155 -405 -3
-406 -2 -27 -30 c-23 -26 -56 -41 -56 -25 0 3 18 23 41 45 42 40 49 72 16 78
-9 2 -31 -10 -48 -27 -17 -17 -34 -31 -39 -31 -5 0 -20 -15 -34 -32 -28 -36
-36 -27 -10 10 22 32 27 82 8 89 -39 15 -114 -65 -114 -120 0 -27 2 -29 27
-22 l27 6 -19 -21 c-11 -12 -32 -28 -47 -36 -48 -25 -74 -104 -35 -104 24 0
67 40 89 83 11 23 37 56 57 73 36 32 36 32 48 10 15 -28 24 -29 532 -27 344 1
429 4 446 15 12 8 32 41 45 75 14 34 27 61 30 61 3 0 30 -240 60 -532 29 -293
58 -544 64 -558 17 -39 57 -56 93 -41 17 7 35 22 42 34 9 17 161 1971 161
2068 0 12 2 20 5 17 3 -3 24 -241 46 -529 38 -488 42 -526 62 -546 11 -13 32
-23 48 -23 54 0 66 22 111 217 23 101 45 180 48 175 4 -4 28 -95 55 -202 26
-107 54 -203 63 -212 13 -16 35 -18 164 -18 l148 0 0 41 0 41 -125 -4 -125 -4
-10 36 c-5 19 -34 136 -65 260 -80 322 -72 299 -101 306 -16 4 -31 1 -39 -7
-7 -8 -35 -104 -60 -214 -45 -191 -65 -250 -65 -193 0 25 -90 1089 -110 1298
-8 79 -14 108 -27 118 -22 16 -30 15 -51 -6z m-1513 -1581 c-24 -46 -49 -71
-49 -49 0 20 47 87 62 88 4 0 -2 -18 -13 -39z m127 -9 c-16 -15 -25 -20 -21
-12 13 25 38 50 44 45 3 -3 -8 -18 -23 -33z m-200 -150 c-18 -35 -46 -60 -46
-42 0 16 39 70 51 70 5 0 3 -13 -5 -28z"/>
<path d="M2728 3070 c-130 -66 -290 -143 -355 -170 -168 -72 -347 -160 -423
-208 -88 -56 -190 -160 -261 -263 -66 -99 -138 -261 -148 -334 l-6 -50 -767
-3 -768 -2 0 -75 0 -75 767 -2 767 -3 21 -85 c25 -100 64 -188 127 -285 124
-192 327 -342 668 -495 63 -29 142 -64 175 -79 33 -15 89 -38 125 -51 35 -13
124 -54 197 -90 l134 -66 -3 95 -3 95 -125 57 c-69 31 -195 87 -280 124 -399
173 -502 233 -640 374 -109 111 -164 201 -204 333 -53 172 -22 320 106 505
147 213 298 310 848 544 107 45 218 94 245 108 l50 26 3 98 c1 53 -1 97 -5 97
-4 0 -115 -54 -245 -120z"/>
<path d="M9936 2169 c-33 -39 -107 -170 -120 -214 -3 -11 -1 -26 4 -34 13 -22
55 0 75 39 19 36 4 40 -23 5 -11 -14 -22 -25 -26 -25 -8 0 14 54 25 61 5 3 11
15 13 26 9 46 80 161 90 145 3 -5 -14 -39 -39 -76 -48 -72 -48 -88 1 -28 69
85 90 142 50 142 -8 0 -30 -19 -50 -41z"/>
<path d="M9532 2158 c-31 -51 -112 -220 -112 -235 0 -25 17 -13 46 32 33 53
51 60 27 10 -13 -28 -14 -38 -4 -48 9 -9 18 -8 41 5 17 9 30 13 30 8 0 -22 30
-8 45 19 19 37 40 52 24 17 -14 -30 -4 -76 16 -76 10 0 12 9 9 33 -4 24 1 42
20 70 14 21 26 42 26 47 0 15 -22 12 -42 -7 -17 -15 -18 -15 -18 0 0 26 -17
20 -37 -13 -9 -16 -23 -30 -29 -30 -7 0 -21 -11 -32 -25 -37 -47 -37 -17 0 37
31 45 15 67 -24 31 -27 -24 -22 -5 21 74 36 66 40 83 20 83 -4 0 -16 -15 -27
-32z"/>
<path d="M10929 2143 c-32 -50 -106 -198 -111 -222 -2 -10 7 -16 29 -18 42 -4
85 32 102 85 15 45 8 66 -20 59 -26 -7 -24 -1 16 66 19 32 35 62 35 68 0 22
-23 5 -51 -38z m1 -123 c0 -16 -38 -88 -51 -95 -29 -19 -22 36 12 78 21 28 39
35 39 17z"/>
<path d="M9128 2115 c-13 -20 -33 -38 -46 -41 -17 -5 -20 -9 -12 -19 8 -10 7
-22 -4 -44 -21 -39 -21 -90 0 -98 8 -3 28 4 44 16 29 21 29 21 40 1 14 -27 49
-25 94 5 l36 24 0 -24 c0 -47 77 -36 114 17 25 35 9 35 -27 0 -43 -42 -62 -42
-53 -1 6 33 45 94 54 85 2 -3 -1 -12 -8 -21 -10 -12 -10 -15 3 -15 21 0 42 39
29 52 -16 16 -50 -1 -78 -38 -15 -19 -31 -34 -36 -34 -6 0 -23 -11 -40 -25
-16 -14 -36 -25 -44 -25 -23 0 -16 26 10 38 31 14 60 57 52 77 -9 25 -37 17
-72 -20 -18 -19 -36 -35 -40 -35 -4 0 -20 -15 -35 -32 -27 -31 -28 -32 -29
-10 0 12 11 45 25 71 19 38 31 51 55 56 35 8 40 25 8 25 -17 0 -19 3 -10 12 7
7 12 18 12 25 0 24 -20 13 -42 -22z m78 -123 c-16 -15 -25 -20 -21 -12 13 25
38 50 44 45 3 -3 -8 -18 -23 -33z"/>
<path d="M10571 2124 c-12 -15 -21 -31 -21 -35 0 -5 -11 -11 -25 -15 -26 -6
-33 -20 -15 -26 6 -2 1 -24 -12 -55 -18 -43 -19 -54 -9 -67 20 -23 39 -20 72
14 23 22 30 25 28 12 -3 -33 1 -42 19 -42 35 1 80 52 92 104 6 30 5 36 -11 41
-22 7 -62 -19 -80 -53 -7 -12 -18 -21 -24 -20 -6 2 -23 -10 -37 -26 -37 -43
-42 -12 -9 55 20 43 33 56 59 64 36 10 43 25 12 25 -17 0 -19 3 -10 19 21 40
1 43 -29 5z m96 -122 c-10 -10 -17 -23 -17 -29 0 -6 -7 -16 -15 -23 -27 -23
-18 28 11 57 28 28 47 24 21 -5z"/>
<path d="M11194 2115 c-10 -20 -29 -38 -41 -42 -24 -6 -30 -19 -12 -25 7 -2 3
-19 -11 -46 -30 -57 -21 -97 18 -88 30 8 74 54 65 69 -3 6 -18 -4 -32 -22 -48
-58 -54 -37 -15 50 23 51 31 59 60 65 19 3 34 11 34 16 0 6 -11 8 -25 6 -21
-4 -23 -2 -15 13 6 10 10 22 10 28 0 22 -17 10 -36 -24z"/>
<path d="M11316 2119 c-10 -17 -29 -35 -42 -41 -24 -11 -33 -28 -15 -28 6 0 1
-21 -10 -46 -21 -47 -19 -94 4 -94 6 0 27 9 45 20 26 16 32 17 32 5 0 -36 74
-27 118 15 34 32 19 36 -21 6 -34 -26 -67 -34 -67 -17 0 6 13 17 29 27 35 21
63 65 52 83 -13 21 -43 5 -109 -59 -34 -33 -64 -60 -67 -60 -12 0 -4 32 21 84
22 46 31 56 62 64 33 9 35 11 15 17 -18 6 -22 12 -17 31 9 34 -8 30 -30 -7z
m92 -111 c-8 -12 -20 -24 -27 -26 -9 -3 -7 5 4 22 10 14 22 26 27 26 6 0 4
-10 -4 -22z"/>
<path d="M8663 2133 c-7 -2 -13 -12 -13 -20 0 -10 6 -13 16 -9 9 3 18 6 20 6
2 0 4 7 4 15 0 15 -6 17 -27 8z"/>
<path d="M8511 2056 c-33 -18 -41 -45 -25 -78 18 -35 18 -58 -1 -58 -10 0 -15
10 -15 31 0 38 -24 35 -28 -4 -4 -34 29 -54 65 -38 21 10 24 16 18 39 -13 51
-10 84 7 95 9 6 21 8 25 4 7 -7 -8 -21 -32 -30 -5 -3 -6 -8 -2 -13 13 -13 62
19 62 41 0 25 -40 31 -74 11z"/>
<path d="M8817 2050 c-30 -24 -68 -97 -60 -116 3 -9 13 -12 24 -9 35 11 20
-13 -31 -49 -51 -36 -72 -78 -52 -98 19 -19 60 7 92 59 16 27 49 69 74 94 42
43 57 69 39 69 -5 0 -19 -15 -32 -33 -13 -17 -20 -23 -16 -12 31 81 33 91 23
103 -15 17 -31 15 -61 -8z m19 -53 c-8 -19 -22 -40 -31 -47 -26 -22 -18 19 11
57 32 42 43 36 20 -10z m-80 -165 c-18 -35 -36 -50 -36 -29 0 16 40 70 47 63
2 -2 -3 -18 -11 -34z"/>
<path d="M10075 2036 c-52 -56 -66 -130 -21 -113 32 13 15 -12 -34 -47 -51
-36 -72 -78 -52 -98 19 -19 60 8 90 58 15 26 48 67 75 92 26 25 47 51 47 58 0
22 -13 16 -39 -19 -13 -17 -20 -23 -16 -12 31 81 33 91 23 103 -17 20 -39 14
-73 -22z m31 -39 c-8 -19 -22 -40 -31 -47 -26 -22 -18 19 11 57 32 42 43 36
20 -10z m-73 -158 c-10 -17 -24 -35 -30 -41 -22 -18 -15 16 8 46 28 36 44 33
22 -5z"/>
<path d="M9746 2035 c-32 -30 -58 -88 -50 -110 9 -23 53 -11 82 23 23 29 45
89 36 104 -10 16 -41 8 -68 -17z m44 -13 c0 -4 -5 -13 -11 -19 -6 -6 -16 -21
-23 -34 -14 -28 -39 -39 -29 -12 16 44 63 93 63 65z"/>
<path d="M9982 2047 c-41 -23 -79 -100 -62 -126 13 -22 60 0 85 38 45 70 33
119 -23 88z m28 -26 c0 -5 -7 -14 -15 -21 -8 -7 -15 -18 -15 -25 0 -7 -7 -18
-15 -25 -24 -20 -19 22 6 54 20 26 39 34 39 17z"/>
<path d="M11005 2038 c-57 -44 -66 -128 -14 -128 25 0 71 23 89 45 23 27 2 29
-30 1 -17 -14 -38 -26 -46 -26 -21 0 -17 28 6 35 26 8 63 62 56 80 -8 21 -29
19 -61 -7z m20 -38 c-10 -11 -20 -18 -23 -15 -3 3 3 14 13 25 10 11 20 18 23
15 3 -3 -3 -14 -13 -25z"/>
<path d="M11577 2043 c-15 -15 -19 -16 -27 -4 -7 13 -11 13 -26 0 -17 -13 -64
-109 -64 -129 0 -23 20 -7 50 40 26 41 34 47 48 39 19 -12 72 4 72 21 0 7 -6
8 -19 0 -30 -16 -35 -12 -17 15 26 39 15 50 -17 18z"/>
<path d="M11972 2044 c-45 -31 -69 -118 -37 -130 8 -4 21 -1 29 5 10 8 16 8
26 -4 23 -28 39 -19 100 55 l20 25 -11 -27 c-14 -32 -4 -78 16 -78 10 0 12 9
9 33 -4 24 1 42 20 70 38 56 33 73 -12 41 -20 -14 -22 -14 -22 1 0 31 -23 9
-55 -54 -36 -71 -58 -67 -30 5 9 25 14 51 11 59 -7 19 -36 19 -64 -1z m38 -20
c0 -9 -22 -48 -38 -66 -20 -23 -35 -12 -21 15 21 40 59 73 59 51z"/>
<path d="M12222 2044 c-45 -31 -69 -118 -37 -130 8 -4 22 0 31 7 13 11 17 10
25 -4 6 -9 17 -17 24 -17 18 0 19 12 3 28 -8 8 -7 22 6 57 10 25 15 52 12 60
-7 19 -36 19 -64 -1z m38 -22 c0 -9 -49 -82 -55 -82 -13 0 -3 40 16 64 20 25
39 34 39 18z"/>
<path d="M8604 2017 c-42 -63 -57 -107 -35 -107 7 0 71 119 71 134 0 15 -17 3
-36 -27z"/>
<path d="M8650 1991 c-35 -69 -35 -71 -16 -71 8 0 24 16 36 35 26 41 33 45 20
9 -12 -31 -3 -74 16 -74 10 0 13 7 8 25 -6 23 5 52 36 102 19 30 6 39 -25 19
-15 -10 -24 -12 -23 -5 2 6 -2 13 -9 16 -7 2 -25 -22 -43 -56z"/>
<path d="M10266 1994 c-68 -77 -75 -64 -11 22 5 7 6 17 1 21 -11 11 -73 -62
-79 -93 -5 -30 12 -40 42 -24 42 22 20 -8 -29 -39 -55 -36 -73 -60 -68 -94 8
-54 75 -23 113 53 14 27 46 71 72 97 28 27 42 48 35 51 -7 2 -21 -7 -33 -20
-20 -23 -20 -23 1 19 39 81 23 84 -44 7z m-76 -174 c-23 -32 -40 -39 -40 -16
0 18 53 71 58 57 2 -6 -6 -24 -18 -41z"/>
<path d="M11787 2032 c-18 -20 -56 -101 -57 -119 0 -27 21 -11 45 35 15 26 24
39 21 29 -16 -51 -18 -67 -7 -67 6 0 20 15 31 33 17 27 20 29 20 10 0 -32 10
-53 26 -53 9 0 12 8 8 28 -4 21 1 36 20 59 14 17 26 36 26 42 0 12 -23 15 -34
4 -4 -5 -17 -8 -29 -9 -12 -1 -30 -5 -41 -9 -16 -7 -17 -6 -7 13 14 26 0 29
-22 4z"/>
<path d="M9294 1585 c-36 -38 -124 -205 -124 -235 0 -41 46 -31 76 16 24 36 9
41 -20 8 -21 -24 -25 -26 -26 -11 0 10 22 42 49 70 68 74 111 136 111 164 0
34 -27 29 -66 -12z m-5 -80 c-48 -71 -66 -78 -29 -12 38 69 63 102 68 88 2 -7
-15 -41 -39 -76z"/>
<path d="M11023 1576 c-10 -13 -30 -44 -43 -68 -16 -32 -32 -47 -54 -54 -56
-17 -96 -105 -61 -134 13 -10 19 -9 35 5 19 17 21 17 33 2 8 -10 21 -14 37
-10 19 4 33 22 57 71 17 37 30 68 27 71 -9 9 -42 -31 -64 -79 -23 -49 -40 -57
-40 -20 0 11 25 68 55 127 30 59 55 109 55 110 0 11 -22 -1 -37 -21z m-83
-141 c0 -12 -40 -84 -50 -90 -19 -11 -10 42 11 69 18 23 39 34 39 21z"/>
<path d="M9878 1525 c-13 -20 -34 -38 -47 -42 -21 -5 -22 -7 -8 -18 14 -10 14
-14 -4 -41 -23 -36 -25 -92 -3 -101 8 -3 28 4 44 15 l28 21 14 -21 c14 -20 18
-21 55 -10 40 12 82 47 70 58 -3 4 -20 -5 -37 -20 -29 -23 -60 -34 -60 -21 0
3 18 23 41 45 25 24 39 46 37 57 -6 33 -38 26 -78 -16 -22 -23 -44 -41 -49
-41 -5 0 -12 -9 -16 -19 -3 -11 -12 -22 -20 -25 -23 -8 -18 28 10 85 20 39 32
51 55 56 17 3 30 10 30 15 0 6 -9 8 -20 5 -21 -5 -28 7 -10 18 13 8 13 35 0
35 -5 0 -20 -16 -32 -35z m78 -123 c-16 -15 -25 -20 -21 -12 13 25 38 50 44
45 3 -3 -8 -18 -23 -33z"/>
<path d="M11151 1534 c-12 -15 -21 -31 -21 -35 0 -5 -6 -9 -12 -9 -7 0 -20 -5
-28 -10 -12 -8 -13 -12 -1 -19 11 -7 11 -13 0 -32 -6 -13 -15 -38 -19 -56 -14
-59 38 -70 80 -16 30 38 12 50 -19 12 -33 -39 -44 -28 -26 23 20 59 43 88 75
95 17 3 30 10 30 15 0 6 -9 8 -21 5 -15 -4 -19 -2 -15 9 3 8 9 21 12 29 10 24
-13 17 -35 -11z"/>
<path d="M11070 1535 c-7 -9 -10 -19 -6 -22 8 -9 38 9 44 25 5 17 -23 15 -38
-3z"/>
<path d="M11263 1543 c-14 -5 -18 -33 -5 -33 10 0 32 22 32 32 0 9 -8 9 -27 1z"/>
<path d="M9559 1449 c-33 -36 -49 -68 -49 -101 0 -16 4 -19 25 -14 37 10 22
-14 -30 -46 -47 -29 -72 -66 -62 -92 14 -37 75 1 108 67 12 22 42 60 68 84 44
40 49 42 108 43 51 0 61 3 57 15 -5 11 -22 15 -64 15 -54 0 -60 -3 -89 -35
-35 -40 -40 -37 -13 9 44 75 -1 117 -59 55z m38 -27 c-10 -10 -17 -23 -17 -29
0 -5 -9 -18 -20 -28 -16 -14 -20 -15 -20 -4 0 27 56 96 68 84 3 -3 -2 -13 -11
-23z m-81 -170 c-18 -35 -46 -60 -46 -42 0 16 39 70 51 70 5 0 3 -13 -5 -28z"/>
<path d="M11543 1470 c-38 -15 -48 -48 -28 -87 13 -24 15 -37 8 -44 -17 -17
-35 0 -29 27 8 30 -9 32 -25 3 -16 -30 18 -64 54 -55 34 8 42 39 21 75 -17 29
-17 31 1 51 10 11 25 20 34 20 12 -1 10 -6 -8 -21 -27 -22 -23 -34 8 -24 29 9
48 45 30 56 -17 11 -37 10 -66 -1z"/>
<path d="M9315 1436 c-35 -38 -54 -91 -37 -108 28 -28 103 46 105 104 3 47
-26 49 -68 4z m24 -50 c-22 -37 -39 -47 -39 -22 0 19 53 82 57 69 2 -6 -6 -27
-18 -47z"/>
<path d="M10136 1449 c-21 -17 -25 -17 -19 -4 4 13 1 16 -13 13 -25 -5 -88
-128 -72 -143 7 -7 12 -6 15 2 2 6 18 31 35 54 20 28 33 38 38 30 9 -15 54 -5
71 15 14 17 -2 19 -19 2 -19 -19 -27 0 -9 20 33 36 15 44 -27 11z"/>
<path d="M10522 1437 c-60 -62 -60 -137 0 -122 28 7 85 61 75 71 -3 4 -20 -8
-37 -25 -17 -17 -36 -31 -41 -31 -25 0 2 82 37 111 16 13 16 12 5 -8 -13 -26
0 -31 19 -8 14 17 7 45 -13 45 -7 0 -28 -15 -45 -33z"/>
<path d="M10662 1445 c-37 -31 -62 -99 -43 -118 28 -28 102 45 104 104 2 43
-20 49 -61 14z m20 -56 c-20 -36 -42 -49 -42 -26 0 20 53 83 57 70 2 -6 -4
-26 -15 -44z"/>
<path d="M11282 1445 c-36 -30 -62 -99 -45 -116 29 -29 104 44 106 103 2 42
-21 47 -61 13z m20 -56 c-20 -36 -42 -49 -42 -26 0 20 53 83 57 70 2 -6 -4
-26 -15 -44z"/>
<path d="M9432 1448 c-15 -19 -52 -96 -52 -108 0 -18 28 -11 35 9 3 11 11 24
18 29 9 8 12 0 12 -31 0 -29 5 -42 15 -44 11 -3 15 7 15 39 0 29 8 53 25 75
28 39 21 53 -15 29 -22 -14 -25 -15 -25 -1 0 18 -14 20 -28 3z"/>
<path d="M10210 1408 c-29 -51 -41 -106 -20 -93 6 4 19 24 30 46 23 44 35 52
20 13 -19 -50 -11 -61 19 -24 l29 35 4 -34 c4 -47 28 -54 28 -8 0 24 9 46 26
67 29 33 25 52 -6 32 -11 -6 -26 -9 -35 -6 -8 4 -27 -1 -41 -11 -25 -16 -25
-16 -15 4 14 24 14 31 1 31 -5 0 -23 -24 -40 -52z"/>
<path d="M10772 1448 c-15 -19 -52 -96 -52 -108 0 -18 28 -11 35 9 3 11 12 24
19 30 10 8 13 2 12 -31 -1 -31 3 -43 15 -46 12 -2 14 5 11 33 -3 27 2 45 23
76 30 43 27 61 -8 40 -15 -10 -22 -10 -25 -2 -5 15 -17 14 -30 -1z"/>
<path d="M11190 1408 c-29 -52 -38 -88 -21 -88 7 0 71 119 71 134 0 21 -24 -1
-50 -46z"/>
<path d="M11392 1448 c-15 -19 -52 -96 -52 -108 0 -18 28 -11 35 9 3 11 11 24
18 29 9 8 12 0 12 -31 0 -30 4 -42 16 -45 12 -2 14 5 11 33 -3 27 2 45 23 76
32 45 28 60 -10 35 -22 -14 -25 -15 -25 -1 0 18 -14 20 -28 3z"/>
</g>
</svg>
